{"title":"Safe Haven 2013 1080p BluRay H264 AAC","uid":12746535,"size":2368880391,"categoryP":"video","categoryS":"hd___movies","magnet":"?xt=urn:btih:7ad2d94e8f30a76588f85029e4f2bfe28bdc8e35&amp;dn=Safe+Haven+2013+1080p+BluRay+H264+AAC&amp;tr=udp%3A%2F%2Ftracker.leechers-paradise.org%3A6969&amp;tr=udp%3A%2F%2Fzer0day.ch%3A1337&amp;tr=udp%3A%2F%2Fopen.demonii.com%3A1337&amp;tr=udp%3A%2F%2Ftracker.coppersurfer.tk%3A6969&amp;tr=udp%3A%2F%2Fexodus.desync.com%3A6969","seeders":14,"leechers":0,"uploader":"TheRival","files":5,"time":1447317534,"description":"Screens: \nhttp://extraimago.com/image/eYR \nhttp://extraimago.com/image/eYm \nhttp://extraimago.com/image/eYi \nhttp://extraimago.com/image/eYl \nhttp://extraimago.com/image/eYI\r\n\r\nVideo\r\nID                                       : 1\r\nFormat                                   : AVC\r\nFormat/Info                              : Advanced Video Codec\r\nFormat profile                           :   \r\nFormat settings, CABAC                   : Yes\r\nFormat settings, ReFrames                : 4 frames\r\nCodec ID                                 : avc1\r\nCodec ID/Info                            : Advanced Video Coding\r\nDuration                                 : 1h 55mn\r\nBit rate                                 : 2 500 Kbps\r\nWidth                                    : 1 920 pixels\r\nHeight                                   : 800 pixels\r\nDisplay aspect ratio                     : 2.40:1\r\nFrame rate mode                          : Constant\r\nFrame rate                               : 23.976 fps\r\nColor space                              : YUV\r\nChroma subsampling                       : 4:2:0\r\nBit depth                                : 8 bits\r\nScan type                                : Progressive\r\nBits/(Pixel*Frame)                       : 0.068\r\nStream size                              : 2.02 GiB (92%)\r\nWriting library                          : x264 core 148 r2597M e86f3a1\r\nEncoding settings                        : cabac=1 / ref=4 / deblock=1:-1:-1 / analyse=0x3:0x113 / me=umh / subme=9 / psy=1 / psy_rd=1.00:0.15 / mixed_ref=1 / me_range=24 / chroma_me=1 / trellis=2 / 8x8dct=1 / cqm=0 / deadzone=21,11 / fast_pskip=1 / chroma_qp_offset=-3 / threads=32 / lookahead_threads=4 / sliced_threads=0 / nr=0 / decimate=1 / interlaced=0 / bluray_compat=0 / constrained_intra=0 / bframes=3 / b_pyramid=2 / b_adapt=1 / b_bias=0 / direct=1 / weightb=1 / open_gop=0 / weightp=2 / keyint=250 / keyint_min=25 / scenecut=40 / intra_refresh=0 / rc_lookahead=50 / rc=2pass / mbtree=1 / bitrate=2500 / ratetol=1.0 / qcomp=0.60 / qpmin=0 / qpmax=69 / qpstep=4 / cplxblur=20.0 / qblur=0.5 / vbv_maxrate=31250 / vbv_bufsize=31250 / nal_hrd=none / filler=0 / ip_ratio=1.40 / aq=3:1.00\r\nEncoded date                             : UTC 1904-01-01 00:00:00\r\nTagged date                              : UTC 1904-01-01 00:00:00\r\n\r\nAudio\r\nID                                       : 2\r\nFormat                                   : AAC\r\nFormat/Info                              : Advanced Audio Codec\r\nFormat profile                           : LC\r\nCodec ID                                 : 40\r\nDuration                                 : 1h 55mn\r\nBit rate mode                            : Constant\r\nBit rate                                 : 224 Kbps\r\nChannel(s)                               : 2 channels\r\nChannel(s)_Original                      : 6 channels\r\nChannel positions                        : Front: L C R, Side: L R, LFE\r\nSampling rate                            : 48.0 KHz\r\nCompression mode                         : Lossy\r\nStream size                              : 185 MiB (8%)\r\nLanguage                                 : English\r\nEncoded date                             : UTC 1904-01-01 00:00:00\r\nTagged date                              : UTC 1904-01-01 00:00:00\r\n\r\nMenu #1\r\nID                                       : 3\r\nCodec ID                                 : text\r\nDuration                                 : 1h 55mn\r\nLanguage                                 : English\r\nEncoded date                             : UTC 1904-01-01 00:00:00\r\nTagged date                              : UTC 1904-01-01 00:00:00\r\nBit rate mode                            : CBR\r\n00:00:00.000                             : 00:00:00.000\r\n00:06:46.991                             : 00:06:46.948\r\n00:15:18.961                             : 00:15:18.918\r\n00:21:47.182                             : 00:21:47.139\r\n00:28:33.755                             : 00:28:33.712\r\n00:35:33.925                             : 00:35:33.882\r\n00:44:57.655                             : 00:44:57.612\r\n00:55:11.685                             : 00:55:11.642\r\n01:01:18.009                             : 01:01:17.966\r\n01:08:29.565                             : 01:08:29.522\r\n01:15:27.941                             : 01:15:27.898\r\n01:20:51.473                             : 01:20:51.430\r\n01:26:05.203                             : 01:26:05.160\r\n01:32:22.455                             : 01:32:22.412\r\n01:37:28.052                             : 01:37:28.009\r\n01:45:23.694                             : 01:45:23.651\r\n\r\nMenu #2\r\n00:00:00.043                             : 00:00:00.000\r\n00:06:46.991                             : 00:06:46.948\r\n00:15:18.961                             : 00:15:18.918\r\n00:21:47.182                             : 00:21:47.139\r\n00:28:33.755                             : 00:28:33.712\r\n00:35:33.925                             : 00:35:33.882\r\n00:44:57.655                             : 00:44:57.612\r\n00:55:11.685                             : 00:55:11.642\r\n01:01:18.009                             : 01:01:17.966\r\n01:08:29.565                             : 01:08:29.522\r\n01:15:27.941                             : 01:15:27.898\r\n01:20:51.473                             : 01:20:51.430\r\n01:26:05.203                             : 01:26:05.160\r\n01:32:22.455                             : 01:32:22.412\r\n01:37:28.052                             : 01:37:28.009\r\n01:45:23.694                             : 01:45:23.651","torrent":{"xt":"urn:btih:7ad2d94e8f30a76588f85029e4f2bfe28bdc8e35","amp;dn":"Safe+Haven+2013+1080p+BluRay+H264+AAC","amp;tr":["udp%3A%2F%2Ftracker.leechers-paradise.org%3A6969","udp%3A%2F%2Fzer0day.ch%3A1337","udp%3A%2F%2Fopen.demonii.com%3A1337","udp%3A%2F%2Ftracker.coppersurfer.tk%3A6969","udp%3A%2F%2Fexodus.desync.com%3A6969"],"infoHash":"7ad2d94e8f30a76588f85029e4f2bfe28bdc8e35","infoHashBuffer":{"type":"Buffer","data":[122,210,217,78,143,48,167,101,136,248,80,41,228,242,191,226,139,220,142,53]},"announce":[],"urlList":[]}}